<?xml version="1.0" encoding="UTF-8" standalone="no"?>
<!-- Generator: Adobe Illustrator 27.5.0, SVG Export Plug-In . SVG Version: 6.00 Build 0)  -->

<svg
   version="1.1"
   x="0px"
   y="0px"
   viewBox="0 0 13764100 13764100"
   xml:space="preserve"
   id="svg117"
   width="13764100"
   height="13764100"
   xmlns:xlink="http://www.w3.org/1999/xlink"
   xmlns="http://www.w3.org/2000/svg"
   xmlns:svg="http://www.w3.org/2000/svg"><defs
   id="defs117" />
<g
   id="Background"
   style="display:none;fill:none;fill-opacity:0.143256">
	<g
   id="g2"
   style="fill:none;fill-opacity:0.143256">
		<g
   id="g1"
   style="fill:none;fill-opacity:0.143256">
			<rect
   style="fill:#ffffff;fill-opacity:1"
   width="3710"
   height="3710"
   id="rect1"
   x="0"
   y="0" />
		</g>
	</g>
</g>
<g
   id="Illustration">
	<g
   id="g117">
		<linearGradient
   id="SVGID_1_"
   gradientUnits="userSpaceOnUse"
   x1="3571.9824"
   y1="3994.0027"
   x2="1135.9684"
   y2="968.62598">
			<stop
   offset="0"
   style="stop-color:#DAE3FE"
   id="stop2" />
			<stop
   offset="1"
   style="stop-color:#E9EFFD"
   id="stop3" />
		</linearGradient>
		<path
   style="fill:url(#SVGID_1_)"
   d="m 2910.153,2795.117 c -56.411,58.59 -109.787,96.375 -151.958,126.227 -495.712,350.908 -1082.272,248.621 -1206.933,223.641 C 1367.178,3108.098 1011.346,3036.796 754.087,2738.322 364.875,2286.756 425.481,1575.326 727.38,1105.701 c 55.222,-85.902 346.921,-562.681 939.799,-639.141 358.803,-46.273 777.052,47.054 1079.936,297.407 635.782,525.515 590.521,1587.146 163.038,2031.15 z"
   id="path3" />
		<g
   id="g63">
			<g
   id="g9">
				
					<linearGradient
   id="SVGID_00000108298840827226866020000010514992826959148160_"
   gradientUnits="userSpaceOnUse"
   x1="3251.8411"
   y1="-2585.3296"
   x2="855.77551"
   y2="5215.2158">
					<stop
   offset="0"
   style="stop-color:#ffb13b;stop-opacity:1;"
   id="stop4" />
					<stop
   offset="1"
   style="stop-color:#f89500;stop-opacity:1;"
   id="stop5" />
				</linearGradient>
				<polygon
   style="fill:url(#SVGID_00000108298840827226866020000010514992826959148160_)"
   points="3178.454,2990.372 3178.454,824.876 2301.625,875.747 1423.701,784.769 545.777,887.649 545.777,3076.16 1423.701,3021.986 2301.625,3082.045 "
   id="polygon5" />
				<polygon
   style="fill:#48ff00;fill-opacity:1"
   points="608.402,947.376 1442.546,849.779 1442.546,2972.094 608.402,3023.484 "
   id="polygon6" />
				<polygon
   style="fill:#91ff66;fill-opacity:1"
   points="1442.546,849.779 2276.689,936.086 2276.689,3029.067 1442.546,2972.094 "
   id="polygon7" />
				<polygon
   style="fill:#6cff33;fill-opacity:1"
   points="2276.689,936.086 3109.794,887.827 3109.794,2942.103 2276.689,3029.067 "
   id="polygon8" />
				
					<linearGradient
   id="SVGID_00000039818820113640081310000001125214364966465726_"
   gradientUnits="userSpaceOnUse"
   x1="1423.6588"
   y1="1911.2274"
   x2="1442.5457"
   y2="1911.2274">
					<stop
   offset="0"
   style="stop-color:#DAE3FE"
   id="stop8" />
					<stop
   offset="1"
   style="stop-color:#E9EFFD"
   id="stop9" />
				</linearGradient>
				
					<rect
   x="1423.6591"
   y="849.77899"
   style="fill:url(#SVGID_00000039818820113640081310000001125214364966465726_)"
   width="18.886999"
   height="2122.896"
   id="rect9" />
			</g>
			<g
   id="g60"
   style="fill:#ffffff;fill-opacity:1">
				<defs
   id="defs9"><polygon
     id="SVGID_00000048498350868388788850000008577652390168053662_"
     points="3108.466,2939.311 3108.466,885.036 2275.362,933.294 1441.218,846.988 607.074,944.584 607.074,3020.692 1441.218,2969.302 2275.362,3026.276 " /></defs>
				<clipPath
   id="SVGID_00000070827665979350169280000003636841509130423187_">
					<use
   xlink:href="#SVGID_00000048498350868388788850000008577652390168053662_"
   style="overflow:visible"
   id="use9" />
				</clipPath>
				<g
   style="opacity:0.69;fill:#ffffff;fill-opacity:1"
   clip-path="url(#SVGID_00000070827665979350169280000003636841509130423187_)"
   id="g39">
					
						<linearGradient
   id="SVGID_00000027564138399893290570000011218816783534978947_"
   gradientUnits="userSpaceOnUse"
   x1="2586.0742"
   y1="1088.8517"
   x2="3264.929"
   y2="-134.0871">
						<stop
   offset="0"
   style="stop-color:#4F52FF"
   id="stop10" />
						<stop
   offset="1"
   style="stop-color:#4042E2"
   id="stop11" />
					</linearGradient>
					<polygon
   style="fill:#ffffff;fill-opacity:1"
   points="2587.05,1260.715 2413.324,1099.094 2518.194,957.045 2734.454,1122.512 "
   id="polygon11" />
					
						<linearGradient
   id="SVGID_00000035499167006844160160000010407506486226099085_"
   gradientUnits="userSpaceOnUse"
   x1="1657.2866"
   y1="573.28021"
   x2="2336.1394"
   y2="-649.65527">
						<stop
   offset="0"
   style="stop-color:#4F52FF"
   id="stop12" />
						<stop
   offset="1"
   style="stop-color:#4042E2"
   id="stop13" />
					</linearGradient>
					<polygon
   style="fill:#ffffff;fill-opacity:1"
   points="1433.102,1190.473 1433.102,1422.337 1100.239,1281.851 1118.279,1099.094 "
   id="polygon13" />
					
						<linearGradient
   id="SVGID_00000164498842469811763220000001653464315125497237_"
   gradientUnits="userSpaceOnUse"
   x1="3487.4722"
   y1="1589.2203"
   x2="4166.3262"
   y2="366.28259">
						<stop
   offset="0"
   style="stop-color:#4F52FF"
   id="stop14" />
						<stop
   offset="1"
   style="stop-color:#4042E2"
   id="stop15" />
					</linearGradient>
					<polygon
   style="fill:#ffffff;fill-opacity:1"
   points="3101.149,2508.558 2948.54,2557.585 2902.924,2418.883 3077.518,2331.695 "
   id="polygon15" />
					
						<linearGradient
   id="SVGID_00000146472620697730457390000005495466895258425751_"
   gradientUnits="userSpaceOnUse"
   x1="2341.5977"
   y1="953.14441"
   x2="3020.4504"
   y2="-269.7912">
						<stop
   offset="0"
   style="stop-color:#4F52FF"
   id="stop16" />
						<stop
   offset="1"
   style="stop-color:#4042E2"
   id="stop17" />
					</linearGradient>
					<polygon
   style="fill:#ffffff;fill-opacity:1"
   points="1433.102,2649.799 1607.869,2620.912 1592.076,2501.408 1433.102,2464.637 1257.786,2559.628 "
   id="polygon17" />
					
						<linearGradient
   id="SVGID_00000093156098528972686620000001880134023675177123_"
   gradientUnits="userSpaceOnUse"
   x1="603.32068"
   y1="1873.8341"
   x2="1429.085"
   y2="1873.8341">
						<stop
   offset="0"
   style="stop-color:#DAE3FE"
   id="stop18" />
						<stop
   offset="1"
   style="stop-color:#E9EFFD"
   id="stop19" />
					</linearGradient>
					<polygon
   style="fill:#ffffff;fill-opacity:1"
   points="732.868,1451.666 1073.437,1331.756 1391.16,1575.718 1347.438,1927.779 999.97,1956.499 694.408,2436.23 722.602,2460.565 1018.553,1995.924 1378.13,1966.203 1429.085,1555.891 1079.026,1287.103 603.321,1454.596 613.482,1493.702 682.185,1469.513 1122.377,1608.707 1129.738,1577.162 "
   id="polygon19" />
					
						<linearGradient
   id="SVGID_00000096774661788302882920000001097947885422248344_"
   gradientUnits="userSpaceOnUse"
   x1="567.3288"
   y1="2505.9771"
   x2="953.25079"
   y2="2505.9771">
						<stop
   offset="0"
   style="stop-color:#DAE3FE"
   id="stop20" />
						<stop
   offset="1"
   style="stop-color:#E9EFFD"
   id="stop21" />
					</linearGradient>
					<polygon
   style="fill:#ffffff;fill-opacity:1"
   points="590.024,2311.165 953.251,2669.622 930.555,2700.789 567.329,2342.332 "
   id="polygon21" />
					
						<linearGradient
   id="SVGID_00000094603571869644252280000008159981568691143099_"
   gradientUnits="userSpaceOnUse"
   x1="1635.2311"
   y1="2040.5822"
   x2="2324.2947"
   y2="2040.5822">
						<stop
   offset="0"
   style="stop-color:#DAE3FE"
   id="stop22" />
						<stop
   offset="1"
   style="stop-color:#E9EFFD"
   id="stop23" />
					</linearGradient>
					<polygon
   style="fill:#ffffff;fill-opacity:1"
   points="2202.315,2102.496 2291.778,2358.948 2324.295,2343.574 2107.539,1722.216 2075.018,1737.59 2189.059,2064.494 1635.231,2262.74 1645.547,2301.795 "
   id="polygon23" />
					
						<linearGradient
   id="SVGID_00000129898756480126664490000016434933718284574889_"
   gradientUnits="userSpaceOnUse"
   x1="2448.3452"
   y1="2195.9954"
   x2="2813.177"
   y2="2195.9954">
						<stop
   offset="0"
   style="stop-color:#DAE3FE"
   id="stop24" />
						<stop
   offset="1"
   style="stop-color:#E9EFFD"
   id="stop25" />
					</linearGradient>
					<polygon
   style="fill:#ffffff;fill-opacity:1"
   points="2580.774,2484.243 2606.612,2511.896 2813.177,2250.333 2787.339,2222.682 2681.802,2356.319 2473.363,1880.095 2448.345,1894.934 2661.403,2381.71 2662.055,2381.323 "
   id="polygon25" />
					
						<linearGradient
   id="SVGID_00000098185339020418923010000014174955040208224926_"
   gradientUnits="userSpaceOnUse"
   x1="2638.5647"
   y1="1189.3534"
   x2="3137.2778"
   y2="1189.3534">
						<stop
   offset="0"
   style="stop-color:#DAE3FE"
   id="stop26" />
						<stop
   offset="1"
   style="stop-color:#E9EFFD"
   id="stop27" />
					</linearGradient>
					<path
   style="fill:#ffffff;fill-opacity:1"
   d="m 2660.408,1396.965 -20.37,-33.273 c -0.888,0.736 -1.436,1.353 -1.474,1.396 11.151,-12.702 162.384,-225.75 261.323,-365.862 l 12.346,-17.484 225.044,264.599 -24.942,28.748 -197.688,-232.437 c -21.73,30.745 -68.993,97.561 -116.332,164.177 -131.1,184.488 -134.716,187.489 -137.907,190.136 z"
   id="path27" />
					
						<linearGradient
   id="SVGID_00000029755417405805893080000004558647691596538026_"
   gradientUnits="userSpaceOnUse"
   x1="1662.3967"
   y1="1323.6758"
   x2="2240.6499"
   y2="1323.6758">
						<stop
   offset="0"
   style="stop-color:#DAE3FE"
   id="stop28" />
						<stop
   offset="1"
   style="stop-color:#E9EFFD"
   id="stop29" />
					</linearGradient>
					<polygon
   style="fill:#ffffff;fill-opacity:1"
   points="2169.913,1320.194 2240.65,1602.072 2206.961,1613.528 2136.443,1332.524 2050.258,1076.374 1664.479,1103.071 1662.397,1062.285 2073.637,1033.824 "
   id="polygon29" />
					
						<linearGradient
   id="SVGID_00000168806234223842828160000013021804698361564294_"
   gradientUnits="userSpaceOnUse"
   x1="1070.0565"
   y1="1178.0187"
   x2="1435.9437"
   y2="1178.0187">
						<stop
   offset="0"
   style="stop-color:#DAE3FE"
   id="stop30" />
						<stop
   offset="1"
   style="stop-color:#E9EFFD"
   id="stop31" />
					</linearGradient>
					<polygon
   style="fill:#ffffff;fill-opacity:1"
   points="1098.052,1290.508 1070.057,1288.015 1084.669,1065.529 1435.944,1150.048 1430.261,1182.057 1110.233,1105.058 "
   id="polygon31" />
					
						<linearGradient
   id="SVGID_00000082326998284043911480000011847512266184933562_"
   gradientUnits="userSpaceOnUse"
   x1="2508.7952"
   y1="1105.7996"
   x2="2757.6763"
   y2="1105.7996">
						<stop
   offset="0"
   style="stop-color:#DAE3FE"
   id="stop32" />
						<stop
   offset="1"
   style="stop-color:#E9EFFD"
   id="stop33" />
					</linearGradient>
					<polygon
   style="fill:#ffffff;fill-opacity:1"
   points="2582.65,1284.569 2565.128,1259.029 2711.23,1123.189 2508.795,953.56 2525.199,927.03 2757.676,1121.837 "
   id="polygon33" />
					
						<linearGradient
   id="SVGID_00000138560711929160354580000000114947597500756383_"
   gradientUnits="userSpaceOnUse"
   x1="2882.5251"
   y1="2078.5662"
   x2="3149.1702"
   y2="2078.5662">
						<stop
   offset="0"
   style="stop-color:#DAE3FE"
   id="stop34" />
						<stop
   offset="1"
   style="stop-color:#E9EFFD"
   id="stop35" />
					</linearGradient>
					<polygon
   style="fill:#ffffff;fill-opacity:1"
   points="3062.915,2357.058 3081.844,2498.72 2958.846,2538.234 2966.314,2569.743 3106.922,2524.573 3115.394,2559.535 3149.17,2548.442 2916.304,1587.389 2882.525,1598.481 3058.275,2323.81 2893.879,2405.906 2904.95,2435.946 "
   id="polygon35" />
					
						<linearGradient
   id="SVGID_00000048462542682705147480000015923717828888485762_"
   gradientUnits="userSpaceOnUse"
   x1="922.6524"
   y1="2733.123"
   x2="1649.4441"
   y2="2733.123">
						<stop
   offset="0"
   style="stop-color:#DAE3FE"
   id="stop36" />
						<stop
   offset="1"
   style="stop-color:#E9EFFD"
   id="stop37" />
					</linearGradient>
					<polygon
   style="fill:#ffffff;fill-opacity:1"
   points="1226.714,2572.51 1241.519,2535.467 1444.411,2645.353 1649.444,2588.349 1439.11,2930.78 922.652,2691.592 935.627,2653.626 1426.546,2880.988 1566.294,2653.475 1440.681,2688.397 "
   id="polygon37" />
					
						<linearGradient
   id="SVGID_00000071545501028833789270000018209932811255817126_"
   gradientUnits="userSpaceOnUse"
   x1="1629.3849"
   y1="2654.9592"
   x2="2586.7783"
   y2="2654.9592">
						<stop
   offset="0"
   style="stop-color:#DAE3FE"
   id="stop38" />
						<stop
   offset="1"
   style="stop-color:#E9EFFD"
   id="stop39" />
					</linearGradient>
					<polygon
   style="fill:#ffffff;fill-opacity:1"
   points="1831.795,2570.751 2190.498,2958.944 2134.766,3029.164 2160.544,3056.891 2586.778,2519.84 2560.999,2492.112 2209.551,2934.933 1852.476,2548.504 1651.394,2253.028 1629.385,2273.325 1831.132,2569.777 "
   id="polygon39" />
				</g>
				<g
   style="fill:#ffffff;fill-opacity:1"
   clip-path="url(#SVGID_00000070827665979350169280000003636841509130423187_)"
   id="g59">
					
						<linearGradient
   id="SVGID_00000110452089202300594760000014859888897358507668_"
   gradientUnits="userSpaceOnUse"
   x1="1553.818"
   y1="515.84637"
   x2="2232.6697"
   y2="-707.08728">
						<stop
   offset="0"
   style="stop-color:#4F52FF"
   id="stop40" />
						<stop
   offset="1"
   style="stop-color:#4042E2"
   id="stop41" />
					</linearGradient>
					<path
   style="fill:#ffffff;fill-opacity:1"
   d="M 1546.726,1596.043 1424.072,1438.124 C 1149.198,1325.323 836.128,1208.708 593.274,1195.309 l 1.496,-36.732 c 248.057,13.688 565.64,132.248 843.587,246.42 l 3.775,1.55 128.024,164.833 z"
   id="path41" />
					
						<linearGradient
   id="SVGID_00000021806400492405281380000005826175288141953436_"
   gradientUnits="userSpaceOnUse"
   x1="3108.2388"
   y1="1378.7051"
   x2="3787.0913"
   y2="155.7704">
						<stop
   offset="0"
   style="stop-color:#4F52FF"
   id="stop42" />
						<stop
   offset="1"
   style="stop-color:#4042E2"
   id="stop43" />
					</linearGradient>
					<path
   style="fill:#ffffff;fill-opacity:1"
   d="m 3089.375,2854.16 c -267.758,-191.351 -570.621,-401.978 -781.042,-483.427 l -683.992,293.908 -10.939,-34.498 694.314,-298.343 5.219,1.981 c 213.884,81.206 521.46,295.011 792.968,489.042 z"
   id="path43" />
					
						<linearGradient
   id="SVGID_00000170270713975443399390000002559031783238558367_"
   gradientUnits="userSpaceOnUse"
   x1="1908.7181"
   y1="712.85059"
   x2="2587.5718"
   y2="-510.08649">
						<stop
   offset="0"
   style="stop-color:#4F52FF"
   id="stop44" />
						<stop
   offset="1"
   style="stop-color:#4042E2"
   id="stop45" />
					</linearGradient>
					<polygon
   style="fill:#ffffff;fill-opacity:1"
   points="1573.086,845.246 1783.078,1450.414 1753.79,1464.188 1543.797,859.019 "
   id="polygon45" />
					
						<linearGradient
   id="SVGID_00000119103775205908744950000004662445184058526617_"
   gradientUnits="userSpaceOnUse"
   x1="2684.457"
   y1="1143.4642"
   x2="3363.3108"
   y2="-79.473">
						<stop
   offset="0"
   style="stop-color:#4F52FF"
   id="stop46" />
						<stop
   offset="1"
   style="stop-color:#4042E2"
   id="stop47" />
					</linearGradient>
					<path
   style="fill:#ffffff;fill-opacity:1"
   d="m 2705.389,1631.702 c -54.32,-245.301 -158.965,-414.238 -319.917,-516.469 l 15.129,-32.28 c 88.804,56.405 162.44,133.342 218.863,228.67 51.25,86.588 89.361,188.285 116.512,310.897 z"
   id="path47" />
					
						<linearGradient
   id="SVGID_00000064333116343110460680000009260783999331801984_"
   gradientUnits="userSpaceOnUse"
   x1="2068.1875"
   y1="801.37018"
   x2="2747.0417"
   y2="-421.5679">
						<stop
   offset="0"
   style="stop-color:#4F52FF"
   id="stop48" />
						<stop
   offset="1"
   style="stop-color:#4042E2"
   id="stop49" />
					</linearGradient>
					<polygon
   style="fill:#ffffff;fill-opacity:1"
   points="1349.602,2063.303 1375.968,2083.875 1065.657,2639.983 1039.291,2619.41 "
   id="polygon49" />
					
						<linearGradient
   id="SVGID_00000082363747993614155200000000523875855789098639_"
   gradientUnits="userSpaceOnUse"
   x1="2713.4302"
   y1="1159.5469"
   x2="3392.282"
   y2="-63.3867">
						<stop
   offset="0"
   style="stop-color:#4F52FF"
   id="stop50" />
						<stop
   offset="1"
   style="stop-color:#4042E2"
   id="stop51" />
					</linearGradient>
					<polygon
   style="fill:#ffffff;fill-opacity:1"
   points="2792.539,1652.592 1880.916,1610.288 1882.174,1573.543 2786.921,1615.529 3118.815,1457.137 3130.798,1491.161 "
   id="polygon51" />
					
						<linearGradient
   id="SVGID_00000178183611538500612070000012424216990505512861_"
   gradientUnits="userSpaceOnUse"
   x1="2113.9871"
   y1="826.79572"
   x2="2792.8416"
   y2="-396.14279">
						<stop
   offset="0"
   style="stop-color:#4F52FF"
   id="stop52" />
						<stop
   offset="1"
   style="stop-color:#4042E2"
   id="stop53" />
					</linearGradient>
					<polygon
   style="fill:#ffffff;fill-opacity:1"
   points="614.085,2852.115 602.718,2817.805 1430.924,2445.908 1593.637,2464.727 1590.515,2501.32 1435.28,2483.366 "
   id="polygon53" />
					
						<linearGradient
   id="SVGID_00000134965468298979693770000017613541458226419886_"
   gradientUnits="userSpaceOnUse"
   x1="1948.4949"
   y1="734.93292"
   x2="2627.3474"
   y2="-488.00211">
						<stop
   offset="0"
   style="stop-color:#4F52FF"
   id="stop54" />
						<stop
   offset="1"
   style="stop-color:#4042E2"
   id="stop55" />
					</linearGradient>
					<path
   style="fill:#ffffff;fill-opacity:1"
   d="m 1681.404,2105.588 c -355.586,-4.383 -688.839,-25.417 -858.806,-231.878 l 22.807,-25.445 c 161.479,196.153 487.747,216.255 836.334,220.554 z"
   id="path55" />
					
						<linearGradient
   id="SVGID_00000019679244752980854200000006727457889318132379_"
   gradientUnits="userSpaceOnUse"
   x1="2453.5146"
   y1="1015.2683"
   x2="3132.3679"
   y2="-207.66811">
						<stop
   offset="0"
   style="stop-color:#4F52FF"
   id="stop56" />
						<stop
   offset="1"
   style="stop-color:#4042E2"
   id="stop57" />
					</linearGradient>
					<polygon
   style="fill:#ffffff;fill-opacity:1"
   points="2520.128,908.941 2543.507,933.672 2286.568,1262.831 1909.796,1499.879 1820.15,1676.551 1608.279,2462.873 1681.354,2969.631 1650.202,2975.719 1575.873,2460.272 1577.006,2456.07 1791.1,1661.5 1887.061,1472.383 2266.812,1233.461 "
   id="polygon57" />
					
						<linearGradient
   id="SVGID_00000099622356567489448190000015973749432258255291_"
   gradientUnits="userSpaceOnUse"
   x1="2625.8428"
   y1="1110.9261"
   x2="3304.6936"
   y2="-112.0061">
						<stop
   offset="0"
   style="stop-color:#4F52FF"
   id="stop58" />
						<stop
   offset="1"
   style="stop-color:#4042E2"
   id="stop59" />
					</linearGradient>
					<polygon
   style="fill:#ffffff;fill-opacity:1"
   points="582.298,2034 1176.824,1526.836 1182.642,1527.346 1720.865,1574.71 1871.108,1616.426 1871.977,1616.796 2704.214,1971.717 2707.065,1977.726 3153.635,2918.438 3125.989,2936.226 2682.271,2001.523 1861.982,1651.697 1715.978,1611.157 1186.081,1564.526 600.97,2063.662 "
   id="polygon59" />
				</g>
			</g>
			
				<linearGradient
   id="SVGID_00000013194080917228295200000018244871695636114334_"
   gradientUnits="userSpaceOnUse"
   x1="1699.6704"
   y1="1563.1628"
   x2="1911.58"
   y2="1563.1628">
				<stop
   offset="0"
   style="stop-color:#DAE3FE"
   id="stop60" />
				<stop
   offset="1"
   style="stop-color:#E9EFFD"
   id="stop61" />
			</linearGradient>
			
				<ellipse
   style="fill:url(#SVGID_00000013194080917228295200000018244871695636114334_)"
   cx="1805.625"
   cy="1563.163"
   rx="105.955"
   ry="105.862"
   id="ellipse61" />
			
				<linearGradient
   id="SVGID_00000024710573678846435970000004153631444358731931_"
   gradientUnits="userSpaceOnUse"
   x1="2190.7351"
   y1="869.3974"
   x2="2869.5891"
   y2="-353.54019">
				<stop
   offset="0"
   style="stop-color:#63f77b;stop-opacity:1;"
   id="stop62" />
				<stop
   offset="1"
   style="stop-color:#4042E2"
   id="stop63" />
			</linearGradient>
			
				<ellipse
   style="fill:url(#SVGID_00000024710573678846435970000004153631444358731931_)"
   cx="1805.625"
   cy="1563.163"
   rx="75.919998"
   ry="75.853996"
   id="ellipse63" />
		</g>
		<g
   id="g71">
			
				<linearGradient
   id="SVGID_00000053537537382773037990000001381637534822659463_"
   gradientUnits="userSpaceOnUse"
   x1="2835.2439"
   y1="2265.6851"
   x2="2086.3945"
   y2="2854.7788">
				<stop
   offset="0"
   style="stop-color:#ff9408;stop-opacity:1;"
   id="stop64" />
				<stop
   offset="1"
   style="stop-color:#ffc160;stop-opacity:1;"
   id="stop65" />
			</linearGradient>
			
				<circle
   style="fill:url(#SVGID_00000053537537382773037990000001381637534822659463_)"
   cx="2388.156"
   cy="2617.3931"
   r="139.226"
   id="circle65" />
			<g
   id="g70">
				
					<linearGradient
   id="SVGID_00000010312013961983225650000013911111894224341172_"
   gradientUnits="userSpaceOnUse"
   x1="1111.2777"
   y1="2306.5657"
   x2="2950.7913"
   y2="943.96088">
					<stop
   offset="0"
   style="stop-color:#ffa113;stop-opacity:1;"
   id="stop66" />
					<stop
   offset="1"
   style="stop-color:#ffbe5b;stop-opacity:1;"
   id="stop67" />
				</linearGradient>
				<path
   style="display:inline;fill:url(#SVGID_00000010312013961983225650000013911111894224341172_)"
   d="m 3089.75,1080.181 c 0,264.796 -398.826,940.348 -606.584,1273.575 -16.122,25.858 -50.851,41.562 -115.157,41.562 -30.472,0 -18.487,-15.771 -34.609,-41.629 -207.772,-333.255 -606.543,-1008.744 -606.543,-1273.508 0,-345.278 305.094,-625.181 681.447,-625.181 376.352,0 681.446,279.904 681.446,625.181 z"
   id="path67" />
				
					<linearGradient
   id="SVGID_00000008869399122860567180000001750034494490017209_"
   gradientUnits="userSpaceOnUse"
   x1="2103.7676"
   y1="2347.7512"
   x2="2543.0933"
   y2="221.0199">
					<stop
   offset="0"
   style="stop-color:#ffb547;stop-opacity:1;"
   id="stop68" />
					<stop
   offset="1"
   style="stop-color:#f79400;stop-opacity:1;"
   id="stop69" />
				</linearGradient>
				<path
   style="display:inline;fill:url(#SVGID_00000008869399122860567180000001750034494490017209_)"
   d="m 3049.456,1080.181 c 0,264.796 -398.827,940.348 -606.585,1273.575 -16.122,25.858 -44.443,41.576 -74.915,41.562 -30.472,-0.014 -58.729,-15.771 -74.85,-41.629 -207.772,-333.255 -606.543,-1008.744 -606.543,-1273.509 0,-345.278 305.094,-625.181 681.448,-625.181 376.351,10e-4 681.445,279.905 681.445,625.182 z"
   id="path69" />
				
					<circle
   transform="matrix(0.7071,-0.7071,0.7071,0.7071,-85.6878,2010.9915)"
   style="opacity:0.36;fill:#ffffff"
   cx="2384.637"
   cy="1108.9301"
   id="ellipse69"
   r="415.909" />
				<circle
   style="opacity:0.36;fill:#ffffff"
   cx="2344.3269"
   cy="1068.052"
   r="302.39499"
   id="circle69" />
				<path
   style="fill:#ffffff"
   d="m 2368.009,1636.427 c -278.742,0 -505.515,-226.775 -505.515,-505.519 0,-5.001 4.054,-9.057 9.057,-9.057 5.003,0 9.057,4.056 9.057,9.057 0,268.755 218.646,487.405 487.401,487.405 268.755,0 487.405,-218.65 487.405,-487.405 0,-268.755 -218.649,-487.403 -487.405,-487.403 -155.405,0 -297.898,71.538 -390.936,196.268 -2.992,4.01 -8.674,4.836 -12.676,1.845 -4.01,-2.991 -4.836,-8.666 -1.847,-12.674 96.497,-129.36 244.281,-203.553 405.459,-203.553 278.742,0 505.519,226.775 505.519,505.517 0,278.744 -226.777,505.519 -505.519,505.519 z"
   id="path70" />
			</g>
		</g>
		<g
   id="g77">
			
				<linearGradient
   id="SVGID_00000002376366891975796960000015908560073607549574_"
   gradientUnits="userSpaceOnUse"
   x1="2968.2998"
   y1="2354.3022"
   x2="4067.5471"
   y2="2354.3022"
   gradientTransform="matrix(0.9772,-0.2124,0.2124,0.9772,-2082.7922,1074.6342)">
				<stop
   offset="0"
   style="stop-color:#09005D"
   id="stop71" />
				<stop
   offset="1"
   style="stop-color:#1A0F91"
   id="stop72" />
			</linearGradient>
			<path
   style="display:inline;fill:#f89400;fill-opacity:1"
   d="m 1955.584,2336.34 -919.686,580.565 c -38.573,24.348 -48.227,76.394 -20.955,112.958 l 4.477,6.004 c 24.131,32.35 69.984,38.873 102.177,14.536 l 872.211,-659.379 z"
   id="path72" />
			
				<ellipse
   transform="matrix(0.9772,-0.2124,0.2124,0.9772,-374.6336,548.8877)"
   style="display:inline;opacity:0.19;fill:#ffffff"
   cx="2367.0979"
   cy="2017.9139"
   rx="504.51501"
   ry="495.414"
   id="ellipse72" />
			
				<linearGradient
   id="SVGID_00000136381867019805211810000014898631872131565748_"
   gradientUnits="userSpaceOnUse"
   x1="2213.0459"
   y1="1881.5056"
   x2="3270.4292"
   y2="565.83142"
   gradientTransform="matrix(0.9921,0.1258,-0.1258,0.9921,91.1333,178.9285)">
				<stop
   offset="0"
   style="stop-color:#09005D"
   id="stop73" />
				<stop
   offset="1"
   style="stop-color:#1A0F91"
   id="stop74" />
			</linearGradient>
			<path
   style="display:inline;fill:#f89400;fill-opacity:1"
   d="m 2250.008,1479.232 c -302.971,65.855 -496.155,360.419 -431.489,657.923 64.667,297.508 362.697,485.297 665.669,419.442 302.972,-65.855 496.157,-360.416 431.489,-657.925 -64.667,-297.503 -362.697,-485.296 -665.669,-419.44 z m 216.978,998.234 c -258.465,56.181 -512.716,-104.021 -567.884,-357.827 -55.168,-253.803 109.64,-505.096 368.105,-561.276 258.467,-56.182 512.718,104.024 567.886,357.827 55.167,253.805 -109.639,505.095 -368.107,561.276 z"
   id="path74" />
			<g
   id="g75">
				<path
   style="fill:#bdd0fb"
   d="m 1873.753,2192.562 c -0.523,-0.066 -0.988,-0.417 -1.176,-0.947 -4.381,-12.342 -8.335,-25.03 -11.754,-37.709 -0.207,-0.767 0.247,-1.558 1.014,-1.764 0.768,-0.212 1.557,0.247 1.764,1.014 3.4,12.609 7.333,25.224 11.688,37.497 0.266,0.749 -0.126,1.572 -0.875,1.837 -0.22,0.078 -0.445,0.099 -0.661,0.072 z m -28.982,-151.445 c -0.688,-0.087 -1.229,-0.66 -1.255,-1.374 -1.311,-35.824 1.228,-71.898 7.544,-107.224 17.888,-100.027 64.986,-192.229 136.203,-266.639 72.915,-76.183 166.448,-128.405 270.489,-151.02 97.85,-21.27 198.879,-14.766 292.172,18.816 0.748,0.269 1.136,1.093 0.866,1.841 -0.268,0.749 -1.093,1.136 -1.841,0.866 -92.782,-33.392 -193.265,-39.863 -290.584,-18.712 -103.479,22.494 -196.505,74.431 -269.022,150.199 -70.823,73.998 -117.661,165.687 -135.448,265.155 -6.281,35.123 -8.805,70.993 -7.503,106.611 0.03,0.794 -0.59,1.462 -1.385,1.492 -0.08,0 -0.159,0 -0.236,-0.011 z"
   id="path75" />
			</g>
			<path
   style="fill:#bdd0fb"
   d="m 1082.15,3041.532 c -32.031,-4.061 -51.354,-17.865 -57.454,-41.04 -6.206,-23.587 3.973,-48.956 25.332,-63.128 l 109.75,-72.824 c 0.659,-0.44 1.556,-0.261 1.994,0.403 0.44,0.662 0.259,1.555 -0.403,1.994 l -109.75,72.823 c -20.332,13.491 -30.033,37.604 -24.139,60 5.833,22.161 24.569,35.297 56.029,39.039 0,0 0.01,0 0.01,0 0.783,0.099 1.342,0.813 1.248,1.599 -0.094,0.788 -0.81,1.352 -1.6,1.257 -0.338,-0.039 -0.681,-0.081 -1.017,-0.124 z"
   id="path76" />
			<path
   style="fill:#bdd0fb"
   d="m 1194.21,2844.726 c -0.4,-0.051 -0.778,-0.269 -1.018,-0.632 -0.44,-0.662 -0.259,-1.556 0.403,-1.994 l 14.223,-9.439 c 0.658,-0.439 1.556,-0.261 1.994,0.403 0.44,0.662 0.259,1.555 -0.403,1.994 l -14.223,9.439 c -0.298,0.199 -0.646,0.271 -0.976,0.229 z"
   id="path77" />
		</g>
		<g
   id="g116">
			
				<linearGradient
   id="SVGID_00000085217248321186597070000005023171080579822011_"
   gradientUnits="userSpaceOnUse"
   x1="15997.071"
   y1="2976.2664"
   x2="15340.207"
   y2="3690.7502"
   gradientTransform="matrix(1,0.0095,-0.0095,1,-14723.407,-63.4747)">
				<stop
   offset="0"
   style="stop-color:#09005D"
   id="stop77" />
				<stop
   offset="1"
   style="stop-color:#1A0F91"
   id="stop78" />
			</linearGradient>
			<path
   style="fill:url(#SVGID_00000085217248321186597070000005023171080579822011_)"
   d="m 1037.248,3116.007 c 0,0 -7.17,38.448 -10.869,76.54 -1.446,14.886 9.917,27.932 24.854,28.698 50.748,2.598 159.306,7.747 198.291,6.379 5.861,-0.206 9.748,-6.166 7.632,-11.635 -1.773,-4.583 -5.242,-8.308 -9.688,-10.403 l -178.594,-84.154 z"
   id="path78" />
			
				<linearGradient
   id="SVGID_00000023245287938498356650000002568923709557589419_"
   gradientUnits="userSpaceOnUse"
   x1="15783.863"
   y1="3029.3254"
   x2="15842.209"
   y2="3029.3254"
   gradientTransform="matrix(1,0.0095,-0.0095,1,-14723.407,-63.4747)">
				<stop
   offset="0"
   style="stop-color:#FEBBBA"
   id="stop79" />
				<stop
   offset="1"
   style="stop-color:#FF928E"
   id="stop80" />
			</linearGradient>
			<path
   style="fill:url(#SVGID_00000023245287938498356650000002568923709557589419_)"
   d="m 1031.891,3093.326 5.026,46.117 c 0,0 31.284,14.928 52.9,-1.339 l -12.523,-51.46 z"
   id="path80" />
			
				<linearGradient
   id="SVGID_00000101072586287581347970000016929099375056497321_"
   gradientUnits="userSpaceOnUse"
   x1="15978.637"
   y1="2300.207"
   x2="15538.14"
   y2="2826.9875"
   gradientTransform="matrix(1,0.0095,-0.0095,1,-14723.407,-63.4747)">
				<stop
   offset="0"
   style="stop-color:#63f77b;stop-opacity:1;"
   id="stop81" />
				<stop
   offset="1"
   style="stop-color:#1A0F91"
   id="stop82" />
			</linearGradient>
			<path
   style="fill:url(#SVGID_00000101072586287581347970000016929099375056497321_)"
   d="m 1044.26,2227.311 c -2.475,12.007 -18.399,600.197 41.969,864.429 0.985,4.311 -1.238,8.725 -5.347,10.358 -9.683,3.848 -28.646,9.375 -51.313,9.919 -7.019,0.169 -13.268,-4.452 -15.184,-11.207 -17.391,-61.338 -100.601,-368.622 -109.044,-661.484 -9.435,-327.245 0.106,-11.138 0.106,-11.138 l 9.293,-202.138 z"
   id="path82" />
			
				<linearGradient
   id="SVGID_00000059997017886809793390000011115265265707946627_"
   gradientUnits="userSpaceOnUse"
   x1="15849.715"
   y1="2840.7698"
   x2="15192.823"
   y2="3555.2837"
   gradientTransform="matrix(1,0.0095,-0.0095,1,-14723.407,-63.4747)">
				<stop
   offset="0"
   style="stop-color:#09005D"
   id="stop83" />
				<stop
   offset="1"
   style="stop-color:#1A0F91"
   id="stop84" />
			</linearGradient>
			<path
   style="fill:url(#SVGID_00000059997017886809793390000011115265265707946627_)"
   d="m 830.708,3134.131 c 0,0 -11.015,19.339 -21.991,70.902 -1.983,9.313 4.452,18.304 13.917,19.326 16.749,1.808 42.535,4.174 63.21,4.23 9.529,0.025 17.046,-8.202 15.988,-17.673 -2.11,-18.879 -8.948,-49.887 -30.756,-74.211 z"
   id="path84" />
			
				<linearGradient
   id="SVGID_00000002347978940723523570000003095226037275736477_"
   gradientUnits="userSpaceOnUse"
   x1="15573.578"
   y1="3026.325"
   x2="15623.953"
   y2="3026.325"
   gradientTransform="matrix(1,0.0095,-0.0095,1,-14723.407,-63.4747)">
				<stop
   offset="0"
   style="stop-color:#FEBBBA"
   id="stop85" />
				<stop
   offset="1"
   style="stop-color:#FF928E"
   id="stop86" />
			</linearGradient>
			<path
   style="fill:url(#SVGID_00000002347978940723523570000003095226037275736477_)"
   d="m 821.762,3074.789 12.106,69.786 c 0,0 12.538,9.513 37.583,2.942 l -5.381,-75.012 z"
   id="path86" />
			
				<linearGradient
   id="SVGID_00000134247002280111602170000017075142534047354542_"
   gradientUnits="userSpaceOnUse"
   x1="15898.117"
   y1="2214.0188"
   x2="15367.487"
   y2="2848.5857"
   gradientTransform="matrix(1,0.0095,-0.0095,1,-14723.407,-63.4747)">
				<stop
   offset="0"
   style="stop-color:#63f77b;stop-opacity:1;"
   id="stop87" />
				<stop
   offset="1"
   style="stop-color:#1A0F91"
   id="stop88" />
			</linearGradient>
			<path
   style="fill:url(#SVGID_00000134247002280111602170000017075142534047354542_)"
   d="m 795.193,2242.989 c -54.391,309.896 3.837,767.25 24.093,856.85 1.24,5.486 5.617,9.721 11.156,10.694 9.407,1.651 24.907,3.074 40.242,-1.223 5.283,-1.479 9.031,-6.196 9.297,-11.677 3.522,-72.249 2.658,-516.002 52.252,-690.899 2.513,-8.864 8.014,-16.563 15.574,-21.829 l 93.642,-65.235 8.151,-106.816 z"
   id="path88" />
			<g
   id="g92"
   style="display:inline">
				
					<linearGradient
   id="SVGID_00000063627111257970436250000008054798238666739630_"
   gradientUnits="userSpaceOnUse"
   x1="4011.0632"
   y1="-9589.6846"
   x2="3392.106"
   y2="-8601.3506"
   gradientTransform="matrix(-1,0,0,1,-2179.7961,0)">
					<stop
   offset="0"
   style="stop-color:#ea8800;stop-opacity:1;"
   id="stop89" />
					<stop
   offset="1"
   style="stop-color:#ffa220;stop-opacity:1;"
   id="stop90" />
				</linearGradient>
				<path
   style="display:inline;fill:url(#SVGID_00000063627111257970436250000008054798238666739630_)"
   d="m 1128.52,1657.995 c -154.103,-4.017 -324.574,37.376 -324.574,37.376 -48.5,267.631 -13.541,577.194 -13.541,577.194 119.023,32.429 254.104,-16.709 254.104,-16.709 20.901,-111.857 116.441,-426.312 116.441,-426.312 75.394,-8.627 137.638,-29.763 188.998,-57.999 -38.537,-45.542 -56.36,-103.194 -64.014,-137.245 -54.655,16.414 -109.883,24.934 -157.414,23.695 z"
   id="path90" />
				
					<linearGradient
   id="SVGID_00000080900617166905882660000004556277533802946714_"
   gradientUnits="userSpaceOnUse"
   x1="16024.025"
   y1="1507.1102"
   x2="16322.122"
   y2="1507.1102"
   gradientTransform="matrix(1,0.0095,-0.0095,1,-14723.407,-63.4747)">
					<stop
   offset="0"
   style="stop-color:#FEBBBA"
   id="stop91" />
					<stop
   offset="1"
   style="stop-color:#FF928E"
   id="stop92" />
				</linearGradient>
				<path
   style="fill:url(#SVGID_00000080900617166905882660000004556277533802946714_)"
   d="m 1585.949,1435.318 c -14.966,-18.432 -34.211,-9.964 -34.211,-9.964 -23.595,95.591 -143.261,172.139 -265.803,208.945 7.654,34.052 25.477,91.703 64.014,137.245 203.856,-112.074 236,-336.226 236,-336.226 z"
   id="path92" />
			</g>
			<g
   id="g96">
				
					<linearGradient
   id="SVGID_00000058586232980569987270000005789272980719779477_"
   gradientUnits="userSpaceOnUse"
   x1="1562.6632"
   y1="1734.9542"
   x2="1586.4115"
   y2="1497.472">
					<stop
   offset="0"
   style="stop-color:#FEBBBA"
   id="stop93" />
					<stop
   offset="1"
   style="stop-color:#FF928E"
   id="stop94" />
				</linearGradient>
				<path
   style="fill:url(#SVGID_00000058586232980569987270000005789272980719779477_)"
   d="m 1582.23,1439.932 c 1.536,5.052 -16.883,12.546 -27.488,-8.155 -0.283,-9.876 -5.884,-52.226 0.093,-60.213 31.827,-42.533 93.251,-95.646 93.251,-95.646 10.198,10.257 1.622,20.154 1.622,20.154 l -29.844,30.501 c 6.075,11.227 13.524,20.728 16.928,34.271 2.578,10.256 0.837,21.174 -4.42,30.436 -5.276,9.295 -12.469,21.375 -19.25,30.817 -12.834,17.873 -30.892,17.835 -30.892,17.835 z"
   id="path94" />
				
					<linearGradient
   id="SVGID_00000032619245786220787370000011559421913971310502_"
   gradientUnits="userSpaceOnUse"
   x1="1586.7963"
   y1="1196.6403"
   x2="1597.8892"
   y2="1589.3306">
					<stop
   offset="0"
   style="stop-color:#FEBBBA"
   id="stop95" />
					<stop
   offset="1"
   style="stop-color:#FF928E"
   id="stop96" />
				</linearGradient>
				<path
   style="fill:url(#SVGID_00000032619245786220787370000011559421913971310502_)"
   d="m 1606.749,1346.423 -27.146,22.571 -8.671,22.647 23.755,26.863 c 0,0 8.503,-45.019 14.596,-54.722 6.092,-9.703 3.025,-14.452 -2.534,-17.359 z"
   id="path96" />
			</g>
			
				<linearGradient
   id="SVGID_00000098917127701093177650000012388890268198709426_"
   gradientUnits="userSpaceOnUse"
   x1="4173.7129"
   y1="-9487.8076"
   x2="3554.7571"
   y2="-8499.4756"
   gradientTransform="matrix(-1,0,0,1,-2179.7961,0)">
				<stop
   offset="0"
   style="stop-color:#ff9900;stop-opacity:1;"
   id="stop97" />
				<stop
   offset="1"
   style="stop-color:#ff9900;stop-opacity:1;"
   id="stop98" />
			</linearGradient>
			<path
   style="fill:url(#SVGID_00000098917127701093177650000012388890268198709426_)"
   d="m 861.638,1845.175 -57.692,-149.804 c 0,0 -144.897,96.443 -169.756,220.238 27.183,2.263 76.614,9.81 124.831,34.737 11.205,-58.459 102.617,-105.171 102.617,-105.171 z"
   id="path98" />
			
				<linearGradient
   id="SVGID_00000098919504066245132680000014916689480461054908_"
   gradientUnits="userSpaceOnUse"
   x1="15371.729"
   y1="1929.3168"
   x2="15748.961"
   y2="1929.3168"
   gradientTransform="matrix(1,0.0095,-0.0095,1,-14723.407,-63.4747)">
				<stop
   offset="0"
   style="stop-color:#FEBBBA"
   id="stop99" />
				<stop
   offset="1"
   style="stop-color:#FF928E"
   id="stop100" />
			</linearGradient>
			<path
   style="fill:url(#SVGID_00000098919504066245132680000014916689480461054908_)"
   d="m 986.107,1986.806 c 0,0 -162.506,89.806 -216.3,11.285 -11.168,-16.305 -13.722,-32.426 -10.786,-47.745 -48.217,-24.926 -97.647,-32.474 -124.831,-34.737 -7.494,37.32 -4.101,77.121 17.486,117.521 93.865,175.667 355.441,-6.267 355.441,-6.267 z"
   id="path100" />
			
				<linearGradient
   id="SVGID_00000128487598520238687360000017957167895303850405_"
   gradientUnits="userSpaceOnUse"
   x1="15661.404"
   y1="1526.0391"
   x2="15810.556"
   y2="1526.0391"
   gradientTransform="matrix(1,0.0095,-0.0095,1,-14723.407,-63.4747)">
				<stop
   offset="0"
   style="stop-color:#FEBBBA"
   id="stop101" />
				<stop
   offset="1"
   style="stop-color:#FF928E"
   id="stop102" />
			</linearGradient>
			<path
   style="fill:url(#SVGID_00000128487598520238687360000017957167895303850405_)"
   d="m 973.596,1531.378 -50.394,141.355 c -0.834,2.341 0.106,4.952 2.271,6.176 13.298,7.518 61.255,29.341 119.647,-6.903 6.083,-3.776 10.259,-9.989 11.245,-17.08 l 17.051,-122.597 z"
   id="path102" />
			<g
   id="g108">
				
					<linearGradient
   id="SVGID_00000150791711162325604930000008677644450795750835_"
   gradientUnits="userSpaceOnUse"
   x1="6509.854"
   y1="8806.4189"
   x2="6454.1182"
   y2="8622.5889"
   gradientTransform="matrix(0.7523,-0.6588,0.6588,0.7523,-9590.0049,-818.1582)">
					<stop
   offset="0"
   style="stop-color:#FEBBBA"
   id="stop103" />
					<stop
   offset="1"
   style="stop-color:#FF928E"
   id="stop104" />
				</linearGradient>
				<path
   style="fill:url(#SVGID_00000150791711162325604930000008677644450795750835_)"
   d="m 1081.554,1401.065 c 0,0 52.886,101.884 45.592,142.767 -7.293,40.882 -74.007,37.305 -131.97,3.493 l -39.681,-109.846 z"
   id="path104" />
				
					<linearGradient
   id="SVGID_00000005258289188651762250000016999050695913852844_"
   gradientUnits="userSpaceOnUse"
   x1="6459.5732"
   y1="8486.1221"
   x2="6506.1953"
   y2="8752.041"
   gradientTransform="matrix(0.7523,-0.6588,0.6588,0.7523,-9590.0049,-818.1582)">
					<stop
   offset="0"
   style="stop-color:#09005D"
   id="stop105" />
					<stop
   offset="1"
   style="stop-color:#1A0F91"
   id="stop106" />
				</linearGradient>
				<path
   style="fill:url(#SVGID_00000005258289188651762250000016999050695913852844_)"
   d="m 998.265,1493.595 c 2.378,-1.026 3.28,-3.917 1.882,-6.098 -4.253,-6.632 -12.211,-20.156 -14.68,-31.953 0,0 -9.621,-6.292 24.777,-14.18 34.4,-7.887 85.703,-20.15 96.739,-49.26 10.76,-28.383 -16.115,-100.274 -60.626,-43.621 -1.693,2.156 -4.97,2.172 -6.62,-0.017 -7.117,-9.449 -25.881,-29.102 -52.302,-17.549 -24.725,10.812 -27.67,28.826 -27.419,37.923 0.074,2.675 -2.338,4.733 -4.962,4.206 -12.424,-2.493 -42.276,-4.817 -56.51,25.692 -11.724,25.129 -4.396,39.489 2.335,46.54 2.181,2.285 1.18,6.004 -1.849,6.899 -8.205,2.427 -18.834,9.263 -17.96,28.439 1.21,26.51 30.856,24.459 39.302,23.331 1.384,-0.184 2.772,0.303 3.698,1.348 7.156,8.072 39.415,42.365 74.641,46.797 3.051,0.384 5.446,-2.608 4.474,-5.526 l -14.839,-44.509 c -0.689,-2.067 0.318,-4.318 2.318,-5.182 z"
   id="path106" />
				
					<linearGradient
   id="SVGID_00000067927300402530085100000016652354607503811749_"
   gradientUnits="userSpaceOnUse"
   x1="6452.8794"
   y1="8805.5605"
   x2="6402.7329"
   y2="8640.166"
   gradientTransform="matrix(0.7523,-0.6588,0.6588,0.7523,-9590.0049,-818.1582)">
					<stop
   offset="0"
   style="stop-color:#FEBBBA"
   id="stop107" />
					<stop
   offset="1"
   style="stop-color:#FF928E"
   id="stop108" />
				</linearGradient>
				<path
   style="fill:url(#SVGID_00000067927300402530085100000016652354607503811749_)"
   d="m 1004.34,1499.95 c 0,0 -38.092,-26.673 -41.105,-4.545 -3.012,22.127 34.221,32.419 52.791,24.335 z"
   id="path108" />
			</g>
			<g
   id="g115"
   style="fill:#63f77b;fill-opacity:1">
				<g
   id="g112"
   style="fill:#63f77b;fill-opacity:1">
					
						<linearGradient
   id="SVGID_00000086681917302193108790000001427774345479893126_"
   gradientUnits="userSpaceOnUse"
   x1="15563.497"
   y1="1772.1787"
   x2="15771.653"
   y2="2639.4998"
   gradientTransform="translate(-14455.119)">
						<stop
   offset="0"
   style="stop-color:#09005D"
   id="stop109" />
						<stop
   offset="1"
   style="stop-color:#1A0F91"
   id="stop110" />
					</linearGradient>
					<path
   style="fill:#63f77b;fill-opacity:1"
   d="m 952.895,2128.734 88.523,-309.145 c 1.005,-3.509 3.999,-6.068 7.625,-6.491 16.039,-1.871 62.514,-7.125 116.174,-11.664 64.635,-5.468 139.696,-9.897 184.549,-6.129 6.377,0.535 10.23,7.28 7.394,13.016 -25.506,51.603 -130.424,261.512 -182.964,330.275 -1.741,2.278 -4.433,3.61 -7.3,3.583 l -205.39,-1.911 c -5.976,-0.055 -10.256,-5.788 -8.611,-11.534 z"
   id="path110" />
					
						<linearGradient
   id="SVGID_00000176763851995604210650000007684906032572060819_"
   gradientUnits="userSpaceOnUse"
   x1="15420.862"
   y1="2001.6312"
   x2="15538.799"
   y2="2001.6312"
   gradientTransform="translate(-14455.119)">
						<stop
   offset="0"
   style="stop-color:#FEBBBA"
   id="stop111" />
						<stop
   offset="1"
   style="stop-color:#FF928E"
   id="stop112" />
					</linearGradient>
					<path
   style="fill:#63f77b;fill-opacity:1"
   d="m 974.283,2054.045 c 0,0 -12.332,-50.706 -7.358,-68.696 4.974,-17.99 14.612,-41.12 46.736,-35.98 32.125,5.139 70.019,18.673 70.019,18.673 0,0 -1.914,23.432 -26.329,15.872 l 15.141,11.715 c 0,0 -2.164,18.762 -22.787,8.739 l 14.082,15.536 c 0,0 -8.857,15.409 -24.03,5.526 -15.173,-9.884 -22.446,34.72 -65.474,28.615 z"
   id="path112" />
				</g>
				
					<linearGradient
   id="SVGID_00000140004264726111119780000012804657924885097117_"
   gradientUnits="userSpaceOnUse"
   x1="1159.3149"
   y1="1893.7197"
   x2="1211.2863"
   y2="1893.7197">
					<stop
   offset="0"
   style="stop-color:#4F52FF"
   id="stop113" />
					<stop
   offset="1"
   style="stop-color:#4042E2"
   id="stop114" />
				</linearGradient>
				<path
   style="fill:#63f77b;fill-opacity:1"
   d="m 1159.315,1893.72 c 0,14.352 11.634,25.985 25.986,25.985 14.351,0 25.985,-11.634 25.985,-25.985 0,-14.352 -11.634,-25.986 -25.985,-25.986 -14.352,0 -25.986,11.634 -25.986,25.986 z"
   id="path114" />
				<path
   style="fill:#63f77b;fill-opacity:1"
   d="m 1051.436,1910.85 18.023,-61.141 c 2.211,-7.508 8.248,-13.145 15.752,-14.714 56.491,-11.786 211.109,-14.286 212.664,-14.309 l -0.102,-6.908 c -6.377,0.098 -156.839,2.537 -213.972,14.458 -9.999,2.085 -18.033,9.566 -20.97,19.518 l -18.023,61.141 z"
   id="path115" />
			</g>
		</g>
	</g>
</g>
</svg>
